<svg width="24" height="24" xmlns="http://www.w3.org/2000/svg">

 <g>
  <title>background</title>
  <rect fill="none" id="canvas_background" height="402" width="582" y="-1" x="-1"/>
 </g>
 <g>
  <title>Layer 1</title>
  <path id="svg_1" d="m19,6.184l0,-0.184c0,-1.657 -1.343,-3 -3,-3s-3,1.343 -3,3l-2,0c0,-1.657 -1.343,-3 -3,-3s-3,1.343 -3,3l0,0.184c-1.161,0.415 -2,1.514 -2,2.816l0,9c0,1.654 1.346,3 3,3l12,0c1.654,0 3,-1.346 3,-3l0,-9c0,-1.302 -0.839,-2.401 -2,-2.816zm-4,-0.184c0,-0.552 0.447,-1 1,-1s1,0.448 1,1l0,2c0,0.552 -0.447,1 -1,1s-1,-0.448 -1,-1l0,-2zm-8,0c0,-0.552 0.447,-1 1,-1s1,0.448 1,1l0,2c0,0.552 -0.447,1 -1,1s-1,-0.448 -1,-1l0,-2zm12,12c0,0.551 -0.448,1 -1,1l-12,0c-0.552,0 -1,-0.449 -1,-1l0,-6l14,0l0,6zm0,-7l-14,0l0,-2c0,-0.551 0.448,-1 1,-1c0,1.104 0.896,2 2,2s2,-0.896 2,-2l4,0c0,1.104 0.896,2 2,2s2,-0.896 2,-2c0.552,0 1,0.449 1,1l0,2z"/>
  <text stroke="#000" transform="matrix(0.8984039425849915,0,0,0.8247440345682264,0.6002691827037268,2.9521198360038468) " font-weight="bold" xml:space="preserve" text-anchor="start" font-family="Arvo, sans-serif" font-size="6" id="svg_2" y="17.364137" x="6.066781" stroke-width="0" fill="#000000">2019</text>
 </g>
</svg>